PathFileType	4	(X/Y/Z)	Kaydara																																																																																																																																																																																																																												
DataRate	CameraRate	NumFrames	NumMarkers	Units	OrigDataRate	OrigDataStartFrame	OrigNumFrames																																																																																																																																																																																																																								
60	60	4	74	mm	60	671	211																																																																																																																																																																																																																								
Frame#	Time	N_lasi			N_rasi			N_rpsi			N_lpsi			N_fneck			N_bneck			N_fhead			N_rhead			N_lhead			N_rshld			N_relbtop			N_relbext			N_relblow			N_rwrext			N_rwrtop			N_rwrlow			N_lshld			N_lelblow			N_lelbtop			N_lwrext			N_lwrtop			N_lwrlow			N_rtopleg			N_ltopleg			N_rkneefr			N_rkneebk			N_rkneeis			N_lkneefr			N_lknssbk			N_lkneeis			N_rankfr			N_rankis			N_rankbk			N_lankfr			N_lankbk			N_lankis			D_lasi			D_rasi			D_lpsi			D_fneck			D_bneck			D_fhead			D_rhead			D_lhead			D_rshld			D_relbtop			D_relbext			D_relblow			D_rwrext			D_rwrtop			D_rwrlow			D_lshld			D_lelbext			D_lelblow			D_lelbtop			D_lwrext			D_lwrtop			D_lwrlow			D_rtopleg			D_ltopleg			D_rkneefr			D_rkneebk			D_rkneeis			D_lkneefr			D_lknssbk			D_lkneeis			D_rankfr			D_rankis			D_rankbk			D_lankfr			D_lankbk			D_lankis			D_rpsi			N_lelbext		
		X1	Y1	Z1	X2	Y2	Z2	X3	Y3	Z3	X4	Y4	Z4	X5	Y5	Z5	X6	Y6	Z6	X7	Y7	Z7	X8	Y8	Z8	X9	Y9	Z9	X10	Y10	Z10	X11	Y11	Z11	X12	Y12	Z12	X13	Y13	Z13	X14	Y14	Z14	X15	Y15	Z15	X16	Y16	Z16	X17	Y17	Z17	X18	Y18	Z18	X19	Y19	Z19	X20	Y20	Z20	X21	Y21	Z21	X22	Y22	Z22	X23	Y23	Z23	X24	Y24	Z24	X25	Y25	Z25	X26	Y26	Z26	X27	Y27	Z27	X28	Y28	Z28	X29	Y29	Z29	X30	Y30	Z30	X31	Y31	Z31	X32	Y32	Z32	X33	Y33	Z33	X34	Y34	Z34	X35	Y35	Z35	X36	Y36	Z36	X37	Y37	Z37	X38	Y38	Z38	X39	Y39	Z39	X40	Y40	Z40	X41	Y41	Z41	X42	Y42	Z42	X43	Y43	Z43	X44	Y44	Z44	X45	Y45	Z45	X46	Y46	Z46	X47	Y47	Z47	X48	Y48	Z48	X49	Y49	Z49	X50	Y50	Z50	X51	Y51	Z51	X52	Y52	Z52	X53	Y53	Z53	X54	Y54	Z54	X55	Y55	Z55	X56	Y56	Z56	X57	Y57	Z57	X58	Y58	Z58	X59	Y59	Z59	X60	Y60	Z60	X61	Y61	Z61	X62	Y62	Z62	X63	Y63	Z63	X64	Y64	Z64	X65	Y65	Z65	X66	Y66	Z66	X67	Y67	Z67	X68	Y68	Z68	X69	Y69	Z69	X70	Y70	Z70	X71	Y71	Z71	X72	Y72	Z72	X73	Y73	Z73	X74	Y74	Z74
																																																																																																																																																																																																																															
1	11.167	-522.4691	1223.06839	-53.61249	-511.88747	1253.9325	-281.9628	-244.8801	1224.95178	-342.75032	-246.36473	1211.86668	24.51524	-364.41776	1604.54956	-159.11763	-223.91006	1660.67642	-156.7646	-421.75529	1804.11835	-149.1876	-236.05076	1773.09845	-222.60344	-273.59684	1771.80771	-71.28615	-248.353	1615.88516	-383.40309	-238.77705	1502.19147	-658.72688	-328.53191	1509.33441	-639.93965	-259.63688	1575.87875	-598.06072	-352.97077	1825.57892	-653.72902	-350.17639	1810.70892	-606.83666	-389.81331	1781.1142	-597.61162	-301.95358	1528.95203	91.42754	-350.16884	1200.20592	120.96793	-262.25077	1199.28879	120.10592	-297.59375	881.99768	118.6633	-338.64677	875.82314	143.14977	-370.97942	890.57663	101.97001	-424.38309	1052.5692	-419.53163	-350.51765	1001.32156	66.27394	-434.132	562.01164	-244.80482	-329.68147	580.7769	-315.29282	-369.56818	564.19933	-153.1703	-378.44059	540.73982	-86.05115	-250.83277	554.77184	-31.20005	-258.13709	547.68085	-180.70271	-298.13694	141.0685	-267.87821	-298.63544	154.39049	-187.56855	-217.39126	142.78114	-214.35589	-331.51604	192.93663	-113.76779	-257.58793	184.89634	-72.86621	-293.58793	163.89634	-156.86621	-459.62898	1040.36682	1732.77481	-417.44457	1056.76697	1445.30945	-257.71494	1128.98178	1740.6871	-416.08063	1561.97266	1583.45947	-281.7301	1590.83435	1596.73889	-447.45289	1780.26093	1583.07526	-284.81256	1728.05908	1513.40988	-299.78205	1727.11151	1667.34833	-350.35923	1495.81696	1381.88477	-245.70578	1170.43823	1375.35446	-280.49978	1151.51939	1435.41153	-325.33455	1172.97562	1339.14047	-287.98258	920.37354	1360.95367	-336.68671	918.67516	1329.50745	-362.98443	934.478	1374.72427	-360.71049	1500.04517	1821.27579	-302.11264	1163.02551	1780.35095	-309.94675	1201.37619	1871.0379	-240.63353	1184.11514	1831.10413	-295.54691	939.04579	1862.02362	-335.77633	944.10118	1880.15976	-364.0601	955.56	1839.664	-332.47871	1005.81802	1400.24506	-315.94097	1008.1221	1800.55542	-374.72328	456.70456	1447.3848	-274.48689	490.81917	1418.75946	-282.25361	459.45221	1540.28336	-367.61723	452.91817	1767.54776	-254.72227	485.80688	1784.8613	-325.77934	443.94524	1677.37991	-324.22909	130.06483	1417.41241	-294.91476	126.89316	1482.03903	-244.10675	127.74134	1417.26013	-325.13195	133.80816	1790.54291	-252.21584	125.33834	1805.51788	-294.89588	123.34401	1731.76239	-224.36733	1142.80991	1523.52936	-346.12885	1121.26389	83.62238
2	11.183	-522.55543	1223.14659	-53.70849	-512.16602	1253.91228	-282.09303	-245.15079	1224.8851	-343.03032	-246.11534	1212.08473	24.46025	-364.74464	1604.4252	-159.6035	-224.26767	1660.71442	-157.25657	-422.14317	1803.97842	-149.28399	-236.53709	1773.17093	-223.07175	-273.92986	1771.77979	-71.69054	-248.75715	1615.89218	-383.98514	-239.26197	1502.0488	-659.27269	-328.95458	1508.8623	-640.54161	-260.19175	1575.65018	-598.77983	-354.16412	1825.28534	-655.02502	-351.42262	1810.52277	-608.15983	-390.96939	1780.79636	-598.87768	-301.52273	1528.99094	91.09011	-348.65608	1200.36484	121.67084	-261.03069	1199.63699	119.44367	-294.17339	882.42867	121.29105	-335.17258	876.16333	145.67049	-367.65091	890.10353	104.1148	-424.84432	1052.3143	-419.20948	-350.55672	1001.34071	66.31576	-434.17435	561.9746	-244.87057	-329.71123	580.7645	-315.37338	-369.58221	564.18625	-153.26431	-378.54244	540.74913	-86.11892	-250.97902	554.77512	-31.20806	-258.19157	547.68173	-180.71779	-298.07415	141.06355	-267.91122	-298.66594	154.40713	-187.62238	-217.37555	142.80314	-214.36811	-331.57326	192.92467	-113.8717	-257.73779	184.89634	-72.84427	-293.73779	163.89634	-156.84427	-459.09027	1040.37285	1732.71988	-417.09305	1057.56844	1445.97839	-256.82722	1128.79227	1740.23087	-416.56326	1561.99783	1583.23349	-282.055	1591.12183	1596.29837	-447.51469	1780.52017	1582.26578	-285.22106	1727.74139	1512.59903	-299.95796	1727.1991	1666.79733	-351.17119	1496.34247	1381.62415	-245.74036	1171.09177	1374.63287	-280.5755	1152.20551	1434.89243	-325.45143	1173.69415	1338.82446	-288.09769	920.9523	1360.7193	-336.91235	919.48196	1329.33228	-363.00789	935.24818	1374.65332	-359.54346	1499.86267	1820.50232	-302.49868	1163.82347	1784.3364	-309.8811	1202.97455	1875.2504	-241.33507	1184.05373	1834.84161	-300.91236	940.23743	1871.00479	-341.30653	946.26396	1888.05771	-368.43651	957.5293	1846.79306	-332.47871	1005.81802	1400.24506	-315.90353	1008.13004	1800.56381	-374.88361	456.74141	1447.17194	-274.84169	490.80532	1418.46558	-282.49056	459.48383	1540.00549	-367.96406	452.90245	1767.2467	-255.04169	485.75932	1784.62845	-326.14105	443.92746	1677.12418	-324.28524	130.03377	1417.37228	-294.91346	126.99328	1482.0372	-244.01567	127.71346	1417.11639	-325.14236	133.69556	1790.33768	-252.27093	125.34139	1805.50919	-294.98253	123.29463	1731.6127	-224.12981	1142.9113	1523.24219	-344.76242	1121.51741	83.6427
3	11.2	-522.6236	1223.23471	-53.76907	-512.41047	1253.85063	-282.21741	-245.37163	1224.80202	-343.29895	-245.84011	1212.12936	24.40171	-365.00656	1604.23447	-159.82573	-224.57563	1660.73669	-157.73609	-422.62112	1803.87131	-149.43707	-236.93827	1773.24097	-223.43252	-274.30759	1771.75919	-71.94453	-249.15815	1615.83603	-384.51912	-239.67779	1501.89423	-659.75471	-329.3639	1508.48907	-640.87036	-260.70547	1575.46494	-599.33041	-355.32391	1824.99985	-656.48972	-352.69348	1810.35782	-609.4619	-392.0879	1780.67856	-600.24029	-301.2286	1529.04526	90.72776	-347.61395	1200.27534	122.12954	-258.93276	1199.69887	119.40458	-290.49892	882.87857	124.01534	-331.50791	876.43005	148.29317	-362.28687	888.96935	105.54874	-425.04902	1052.08221	-419.08737	-350.54035	1001.38138	66.23722	-434.32461	561.92661	-244.85258	-329.88228	580.73517	-315.37405	-369.65534	564.18335	-153.28004	-378.65303	540.76916	-86.13653	-251.1482	554.75887	-31.23622	-258.32962	547.66712	-180.74358	-298.19643	141.1249	-268.1595	-298.67573	154.3983	-187.61423	-217.38503	142.8101	-214.3973	-331.63494	192.91758	-113.94397	-257.83888	184.8978	-72.8949	-293.83888	163.8978	-156.8949	-458.29163	1040.33897	1732.79312	-416.91063	1058.1562	1446.2178	-256.05946	1128.67332	1739.70276	-417.08527	1562.0195	1583.23547	-282.30227	1591.46759	1595.65109	-447.69608	1780.71487	1581.52679	-285.51985	1727.4559	1511.88889	-300.19098	1727.27417	1666.33682	-352.24823	1496.81396	1381.45203	-245.57047	1171.75972	1373.77655	-280.43427	1152.81715	1434.0535	-325.3389	1174.24965	1338.00247	-288.22563	921.7112	1360.15594	-337.24224	920.17921	1329.11057	-363.046	935.8551	1374.49402	-358.15506	1499.9437	1820	-303.9221	1165.27817	1788.86047	-310.88364	1205.42847	1879.93271	-243.04316	1184.4503	1839.18716	-306.9109	942.39937	1883.0687	-347.85603	949.52988	1898.94287	-374.09397	960.44846	1857.00577	-332.47871	1005.81802	1400.24506	-315.88121	1008.15041	1800.60501	-375.15915	456.80649	1446.7543	-275.13756	490.83405	1418.24005	-282.76983	459.55471	1539.57886	-368.38875	452.8796	1766.99356	-255.32211	485.52139	1784.3364	-326.58115	443.81123	1676.86752	-324.33887	129.98901	1417.27493	-294.92567	127.07571	1482.03552	-244.14555	127.6862	1417.09747	-325.34817	133.68114	1790.36835	-252.30225	125.37144	1805.42908	-295.08255	123.22097	1731.47339	-224.05832	1143.04062	1522.89429	-343.19241	1121.50352	83.8525
4	11.217	-522.73396	1223.27797	-53.80831	-512.68017	1253.74802	-282.33725	-245.53396	1224.67308	-343.60771	-245.58392	1212.31102	24.37307	-365.4879	1603.9624	-160.20649	-224.96832	1660.82626	-158.20689	-423.08601	1803.85056	-149.73822	-237.69161	1773.20297	-223.98668	-274.58033	1771.77475	-72.44492	-249.63818	1615.76645	-384.97913	-239.93786	1501.82968	-659.98085	-329.71775	1508.14911	-641.13266	-261.11355	1575.34134	-599.71973	-356.3205	1824.79294	-657.81418	-353.87104	1810.25314	-610.75298	-393.0785	1780.50446	-601.48155	-300.91381	1529.04984	90.25695	-345.86411	1200.24338	121.96182	-257.42767	1199.89502	118.73578	-286.97977	883.21762	126.57313	-327.92149	876.81656	151.04647	-358.8076	888.55667	108.25159	-425.12642	1051.84677	-418.99616	-350.60402	1001.48026	66.17896	-434.54643	561.90662	-244.76448	-330.13832	580.66063	-315.37195	-369.76311	564.14955	-153.26614	-378.79066	540.80555	-86.14224	-251.11525	554.79053	-31.38462	-258.52421	547.64015	-180.781	-298.25491	141.08351	-268.11916	-298.73173	154.36513	-187.57404	-217.45796	142.81527	-214.38408	-331.70464	192.91037	-114.0163	-257.86358	184.88129	-72.96128	-293.86358	163.88129	-156.96128	-457.2784	1040.29396	1732.77924	-416.7593	1058.76526	1446.43158	-255.00645	1128.52882	1739.09424	-417.37129	1562.10617	1583.22205	-282.49609	1591.68137	1595.11719	-448.11523	1780.88135	1580.87097	-285.8292	1727.22198	1512.23251	-300.54438	1727.38312	1665.72144	-353.3181	1497.12402	1381.27258	-245.59755	1172.27402	1372.80624	-280.52282	1153.36082	1433.18146	-325.48885	1174.82277	1337.22839	-288.62045	922.26097	1359.53064	-337.66048	920.66879	1328.76785	-363.34965	936.42479	1374.01382	-356.39732	1500.72922	1819.0506	-306.44291	1167.30751	1794.03168	-312.8829	1208.74252	1885.03555	-245.94927	1185.13573	1844.40598	-313.87859	946.27678	1898.25333	-354.99489	954.54521	1913.38104	-380.62462	964.12857	1870.47501	-332.47871	1005.81802	1400.24506	-315.41958	1007.81143	1799.70535	-375.51884	456.91647	1446.24435	-275.56738	490.83565	1417.76505	-282.90668	459.6862	1539.17267	-368.7944	452.89848	1766.8248	-255.75085	485.42843	1783.90579	-327.11704	443.67126	1676.65588	-324.43981	129.92346	1417.21985	-294.91974	127.11508	1481.99905	-244.20694	127.71435	1416.93878	-325.47226	133.62506	1790.25574	-252.35731	125.40002	1805.33951	-295.1771	123.17125	1731.39603	-223.92071	1143.19992	1522.37274	-341.56494	1121.58569	83.43425
